/* XPM */
static char *result[] = {
/* columns rows colors chars-per-pixel */
"16 16 51 1 ",
"  c black",
". c #010101",
"X c #020202",
"o c #090909",
"O c gray13",
"+ c gray15",
"@ c gray18",
"# c #313131",
"$ c #393939",
"% c gray23",
"& c gray25",
"* c #414141",
"= c gray27",
"- c gray29",
"; c gray31",
": c gray32",
"> c gray36",
", c #5F5F5F",
"< c gray38",
"1 c gray40",
"2 c gray42",
"3 c #717171",
"4 c gray47",
"5 c #7B7B7B",
"6 c gray49",
"7 c #848484",
"8 c gray57",
"9 c #929292",
"0 c #939393",
"q c #959595",
"w c #979797",
"e c #989898",
"r c #9A9A9A",
"t c #A0A0A0",
"y c #A2A2A2",
"u c gray65",
"i c gray67",
"p c gray69",
"a c gray70",
"s c #B7B7B7",
"d c gray72",
"f c gray77",
"g c gray79",
"h c #CBCBCB",
"j c LightGray",
"k c #DFDFDF",
"l c #E1E1E1",
"z c #E6E6E6",
"x c gray92",
"c c #EFEFEF",
"v c white",
/* pixels */
"vvvvvvvvvvvvvvvv",
"vkwwwdwwwsewwuvv",
"vp   :   ;X  +vv",
"vp   :   ;X  +vv",
"vp   :   ;X  +vv",
"vg:::0888a9<2yvv",
"vp   4r-=x3 .qvv",
"vp   47$Ozo  @vv",
"vp   47;#d%  ,vv",
"vg:::thidcj13lvv",
"vp   :   ;X  +vv",
"vp   :   ;X  +vv",
"vp   :   ;X  +vv",
"vf&&&6&&&5*&&>vv",
"vvvvvvvvvvvvvvvv",
"vvvvvvvvvvvvvvvv"
};
