/* XPM */
static char *result[] = {
/* columns rows colors chars-per-pixel */
"32 32 78 1 ",
"  c black",
". c #010101",
"X c #020202",
"o c gray1",
"O c #040404",
"+ c gray2",
"@ c #060606",
"# c #070707",
"$ c gray3",
"% c #0C0C0C",
"& c #101010",
"* c #111111",
"= c #131313",
"- c #161616",
"; c #1B1B1B",
": c #1D1D1D",
"> c #232323",
", c gray14",
"< c #252525",
"1 c #282828",
"2 c #2A2A2A",
"3 c gray18",
"4 c #323232",
"5 c gray21",
"6 c gray22",
"7 c gray30",
"8 c gray31",
"9 c #505050",
"0 c #585858",
"q c gray36",
"w c gray37",
"e c #5F5F5F",
"r c gray38",
"t c gray39",
"y c #646464",
"u c gray40",
"i c #6D6D6D",
"p c #777777",
"a c gray49",
"s c gray50",
"d c #808080",
"f c gray51",
"g c gray52",
"h c gray53",
"j c #898989",
"k c gray54",
"l c #8B8B8B",
"z c gray56",
"x c gray57",
"c c gray62",
"v c gray64",
"b c gray65",
"n c #A9A9A9",
"m c #ACACAC",
"M c #AFAFAF",
"N c gray69",
"B c #B2B2B2",
"V c #B4B4B4",
"C c #B9B9B9",
"Z c gray74",
"A c #C3C3C3",
"S c #C5C5C5",
"D c #C6C6C6",
"F c gray81",
"G c gray82",
"H c #D2D2D2",
"J c gray83",
"K c #D5D5D5",
"L c gray85",
"P c #DFDFDF",
"I c gray91",
"U c #ECECEC",
"Y c #EEEEEE",
"T c gray94",
"R c gray97",
"E c #F8F8F8",
"W c #FDFDFD",
"Q c white",
/* pixels */
"QQQQQQQQQQQQQQQQQQQQQQQQQQQQQQQQ",
"QQQQQQQQQQQQQQQQQQQQQQQQQQQQQQQQ",
"QQQQQQQQQQQQQQQQQQQQQQQQQQQQQQQQ",
"QQQa3333333V3333333N4333333iQQQQ",
"QQQr       v       c+      7QQQQ",
"QQQr       v       c+      7QQQQ",
"QQQr       v       c+      7QQQQ",
"QQQr       v       c+      7QQQQ",
"QQQr       v       c+      7QQQQ",
"QQQr       v       c+      7QQQQ",
"QQQp,,,,,,,N,,,,,,,m1,,,,,,uQQQQ",
"QQQNdddddddRQQQQQQQQQQZflLQQQQQQ",
"QQQr       TQtwwexWQE8   OzQQQQQ",
"QQQr       TQ$@y< MQa     .SQQQQ",
"QQQr       TQ$%A0XSQ:      uQQQQ",
"QQQr       TQ$.=+>JQ#      9QQQQ",
"QQQr       TQ$&QV qQ5      sQQQQ",
"QQQr       TQ$o2* hQV.    -IQQQQ",
"QQQr       TQjggkBWQQn;  6KQQQQQ",
"QQQDvvvvvvvUGGGGGGGYHGFMCGGPQQQQ",
"QQQr       v       c+      7QQQQ",
"QQQr       v       c+      7QQQQ",
"QQQr       v       c+      7QQQQ",
"QQQr       v       c+      7QQQQ",
"QQQr       v       c+      7QQQQ",
"QQQr       v       c+      7QQQQ",
"QQQr       v       c+      7QQQQ",
"QQQNsssssssGsssssssFfssssssbQQQQ",
"QQQQQQQQQQQQQQQQQQQQQQQQQQQQQQQQ",
"QQQQQQQQQQQQQQQQQQQQQQQQQQQQQQQQ",
"QQQQQQQQQQQQQQQQQQQQQQQQQQQQQQQQ",
"QQQQQQQQQQQQQQQQQQQQQQQQQQQQQQQQ"
};
