/* XPM */
static char *_4aa8cc49c4e45e2d67c2375f43932784uhoIyVnMuL2ZvSe[] = {
/* columns rows colors chars-per-pixel */
"16 16 50 1 ",
"  c white",
". c #717171",
"X c #464646",
"o c gray53",
"O c #888888",
"+ c gray46",
"@ c #3C3C3C",
"# c black",
"$ c #5B5B5B",
"% c #414141",
"& c #818181",
"* c gray60",
"= c gray65",
"- c gray37",
"; c #727272",
": c gray50",
"> c gray75",
", c #606060",
"< c #626262",
"1 c #CBCBCB",
"2 c #F1F1F1",
"3 c #3A3A3A",
"4 c #1E1E1E",
"5 c #D5D5D5",
"6 c #989898",
"7 c #393939",
"8 c gray31",
"9 c gray55",
"0 c gray56",
"q c gray34",
"w c #656565",
"e c #8D8D8D",
"r c gray33",
"t c gray69",
"y c #3E3E3E",
"u c #434343",
"i c gray64",
"p c #EEEEEE",
"a c #323232",
"s c #181818",
"d c gray82",
"f c #9B9B9B",
"g c #848484",
"h c gray51",
"j c gray39",
"k c gray49",
"l c gray40",
"z c #373737",
"x c #7E7E7E",
"c c #6A6A6A",
/* pixels */
"                ",
" .XXXoXXXXOXXX+ ",
" @###$####$###% ",
" @###$####$###% ",
" @###$####$###% ",
" &$$$*++++=+-;* ",
" @###:>,<123#45 ",
" @###:67890###q ",
" @###:67w<e###r ",
" @###:tyuipa#sd ",
" &$$$fggggtgjki ",
" @###$####$###% ",
" @###$####$###% ",
" @###$####$###% ",
" lzzzxzzzzxzzzc ",
"                "
};
