/* XPM */
static char *result[] = {
/* columns rows colors chars-per-pixel */
"64 64 106 2 ",
"   c black",
".  c #010101",
"X  c #020202",
"o  c gray1",
"O  c #040404",
"+  c gray2",
"@  c #060606",
"#  c gray3",
"$  c gray4",
"%  c #0B0B0B",
"&  c #0C0C0C",
"*  c gray5",
"=  c #0E0E0E",
"-  c gray6",
";  c #101010",
":  c #111111",
">  c gray8",
",  c #191919",
"<  c #1B1B1B",
"1  c #1D1D1D",
"2  c #1E1E1E",
"3  c gray12",
"4  c #202020",
"5  c #252525",
"6  c gray16",
"7  c gray18",
"8  c #343434",
"9  c #3C3C3C",
"0  c #3E3E3E",
"q  c gray25",
"w  c gray26",
"e  c gray28",
"r  c #4B4B4B",
"t  c #4E4E4E",
"y  c gray31",
"u  c #515151",
"i  c gray32",
"p  c gray33",
"a  c #565656",
"s  c gray34",
"d  c #585858",
"f  c gray36",
"g  c gray37",
"h  c #606060",
"j  c #626262",
"k  c gray40",
"l  c gray45",
"z  c gray46",
"x  c gray49",
"c  c gray51",
"v  c #838383",
"b  c #868686",
"n  c gray53",
"m  c #888888",
"M  c gray54",
"N  c #909090",
"B  c gray58",
"V  c #959595",
"C  c #979797",
"Z  c gray60",
"A  c #9B9B9B",
"S  c #9D9D9D",
"D  c gray64",
"F  c #A4A4A4",
"G  c #A5A5A5",
"H  c #A7A7A7",
"J  c gray67",
"K  c #AEAEAE",
"L  c #AFAFAF",
"P  c gray69",
"I  c gray70",
"U  c #B4B4B4",
"Y  c #B6B6B6",
"T  c gray72",
"R  c gray73",
"E  c #BCBCBC",
"W  c gray",
"Q  c gray75",
"!  c #C0C0C0",
"~  c #C1C1C1",
"^  c gray76",
"/  c #C5C5C5",
"(  c #C6C6C6",
")  c #C8C8C8",
"_  c gray79",
"`  c #CDCDCD",
"'  c LightGray",
"]  c gray83",
"[  c #D8D8D8",
"{  c gray86",
"}  c #E1E1E1",
"|  c #E2E2E2",
" . c gray89",
".. c #E4E4E4",
"X. c #E7E7E7",
"o. c gray91",
"O. c #E9E9E9",
"+. c #ECECEC",
"@. c #F4F4F4",
"#. c gray96",
"$. c #F6F6F6",
"%. c #F8F8F8",
"&. c #F9F9F9",
"*. c #FDFDFD",
"=. c #FEFEFE",
"-. c white",
/* pixels */
"-.-.-.-.-.-.-.-.-.-.-.-.-.-.-.-.-.-.-.-.-.-.-.-.-.-.-.-.-.-.-.-.-.-.-.-.-.-.-.-.-.-.-.-.-.-.-.-.-.-.-.-.-.-.-.-.-.-.-.-.-.-.-.-.",
"-.-.-.-.-.-.-.-.-.-.-.-.-.-.-.-.-.-.-.-.-.-.-.-.-.-.-.-.-.-.-.-.-.-.-.-.-.-.-.-.-.-.-.-.-.-.-.-.-.-.-.-.-.-.-.-.-.-.-.-.-.-.-.-.",
"-.-.-.-.-.-.-.-.-.-.-.-.-.-.-.-.-.-.-.-.-.-.-.-.-.-.-.-.-.-.-.-.-.-.-.-.-.-.-.-.-.-.-.-.-.-.-.-.-.-.-.-.-.-.-.-.-.-.-.-.-.-.-.-.",
"-.-.-.-.-.-.-.-.-.-.-.-.-.-.-.-.-.-.-.-.-.-.-.-.-.-.-.-.-.-.-.-.-.-.-.-.-.-.-.-.-.-.-.-.-.-.-.-.-.-.-.-.-.-.-.-.-.-.-.-.-.-.-.-.",
"-.-.-.-.-.-.-.-.-.-.-.-.-.-.-.-.-.-.-.-.-.-.-.-.-.-.-.-.-.-.-.-.-.-.-.-.-.-.-.-.-.-.-.-.-.-.-.-.-.-.-.-.-.-.-.-.-.-.-.-.-.-.-.-.",
"-.-.-.-.-.-.-.-.-.-.-.-.-.-.-.-.-.-.-.-.-.-.-.-.-.-.-.-.-.-.-.-.-.-.-.-.-.-.-.-.-.-.-.-.-.-.-.-.-.-.-.-.-.-.-.-.-.-.-.-.-.-.-.-.",
"-.-.-.-.-.-.[ f f f f f f f f f f f f f f f +.S f f f f f f f f f f f f f f v -.j f f f f f f f f f f f f f f W -.-.-.-.-.-.-.-.",
"-.-.-.-.-.-.~                               } k                             0 -.$                             Z -.-.-.-.-.-.-.-.",
"-.-.-.-.-.-.~                               } k                             0 -.$                             Z -.-.-.-.-.-.-.-.",
"-.-.-.-.-.-.~                               } k                             0 -.$                             Z -.-.-.-.-.-.-.-.",
"-.-.-.-.-.-.~                               } k                             0 -.$                             Z -.-.-.-.-.-.-.-.",
"-.-.-.-.-.-.~                               } k                             0 -.$                             Z -.-.-.-.-.-.-.-.",
"-.-.-.-.-.-.~                               } k                             0 -.$                             Z -.-.-.-.-.-.-.-.",
"-.-.-.-.-.-.~                               } k                             0 -.$                             Z -.-.-.-.-.-.-.-.",
"-.-.-.-.-.-.~                               } k                             0 -.$                             Z -.-.-.-.-.-.-.-.",
"-.-.-.-.-.-.~                               } k                             0 -.$                             Z -.-.-.-.-.-.-.-.",
"-.-.-.-.-.-.~                               } k                             0 -.$                             Z -.-.-.-.-.-.-.-.",
"-.-.-.-.-.-.~                               } k                             0 -.$                             Z -.-.-.-.-.-.-.-.",
"-.-.-.-.-.-.~                               } k                             0 -.$                             Z -.-.-.-.-.-.-.-.",
"-.-.-.-.-.-.~                               } k                             0 -.$                             Z -.-.-.-.-.-.-.-.",
"-.-.-.-.-.-.~                               } k                             0 -.$                             Z -.-.-.-.-.-.-.-.",
"-.-.-.-.-.-.' e e e e e e e e e e e e e e e O.N e e e e e e e e e e e e e e l -.t e e e e e e e e e e e e e e Y -.-.-.-.-.-.-.-.",
"-.-.-.-.-.-.-.-.-.-.-.-.-.-.-.-.-.-.-.-.-.-.-.-.-.-.-.-.-.-.-.-.-.-.-.-.-.-.-.-.-.-.-.-.-.-.-.%.*.-.-.-.-.-.-.-.-.-.-.-.-.-.-.-.",
"-.-.-.-.-.-.^                               } -.-.-.-.-.-.-.-.-.-.-.-.-.-.-.-.-.-.-.-.*.J r ;   O 7 x o.-.-.-.-.-.-.-.-.-.-.-.-.",
"-.-.-.-.-.-.~                               } -.-.-.! E E E E E E ! X.-.-.-.-.-.-.-. .9               = F -.-.-.-.-.-.-.-.-.-.-.",
"-.-.-.-.-.-.~                               } -.-.-.;               X g &.-.-.-.-...3                   . C -.-.-.-.-.-.-.-.-.-.",
"-.-.-.-.-.-.~                               } -.-.-.;                   c -.-.-.=.q                       + ` -.-.-.-.-.-.-.-.-.",
"-.-.-.-.-.-.~                               } -.-.-.;     , _ ) V .     9 -.-.-.U                           e -.-.-.-.-.-.-.-.-.",
"-.-.-.-.-.-.~                               } -.-.-.;     4 -.-.=.-     y -.-.-.a                           X X.-.-.-.-.-.-.-.-.",
"-.-.-.-.-.-.~                               } -.-.-.;     : n b i     # / -.-.-.2                             P -.-.-.-.-.-.-.-.",
"-.-.-.-.-.-.~                               } -.-.-.;               o M =.-.-.-.#                             A -.-.-.-.-.-.-.-.",
"-.-.-.-.-.-.~                               } -.-.-.;     + 5 5 >       s -.-.-.>                             H -.-.-.-.-.-.-.-.",
"-.-.-.-.-.-.~                               } -.-.-.;     4 -.-.=.h       _ -.-.w                             ] -.-.-.-.-.-.-.-.",
"-.-.-.-.-.-.~                               } -.-.-.;     4 -.-.-.z       H -.-.B                           6 -.-.-.-.-.-.-.-.-.",
"-.-.-.-.-.-.~                               } -.-.-.;     % p p q X       ` -.-.#.1                         G -.-.-.-.-.-.-.-.-.",
"-.-.-.-.-.-.~                               } -.-.-.;                   u -.-.-.-.Q @                     d -.-.-.-.-.-.-.-.-.-.",
"-.-.-.-.-.-.~                               } -.-.-.< & & & & & * 3 q m &.-.-.-.-.-.I =                 f &.-.-.-.-.-.-.-.-.-.-.",
"-.-.-.-.-.-.~                               } -.-.-.-.-.-.-.-.-.-.-.-.-.-.-.-.-.-.-.-.| j $         8 K -.-.-.-.-.-.-.-.-.-.-.-.",
"-.-.-.-.-.-.O.D D D D D D D D D D D D D D D @.-.-.-.-.-.-.-.-.-.-.-.-.-.-.-.-.-.-.-.-.-.-.$.( L T  .-.-.-.-.-.-.-.-.-.-.-.-.-.-.",
"-.-.-.-.-.-.O.F F F F F F F F F F F F F F F @.) F F F F F F F F F F F F F F R -.H F F F F F F F F F F F F F F { -.-.-.-.-.-.-.-.",
"-.-.-.-.-.-.~                               } k                             0 -.$                             Z -.-.-.-.-.-.-.-.",
"-.-.-.-.-.-.~                               } k                             0 -.$                             Z -.-.-.-.-.-.-.-.",
"-.-.-.-.-.-.~                               } k                             0 -.$                             Z -.-.-.-.-.-.-.-.",
"-.-.-.-.-.-.~                               } k                             0 -.$                             Z -.-.-.-.-.-.-.-.",
"-.-.-.-.-.-.~                               } k                             0 -.$                             Z -.-.-.-.-.-.-.-.",
"-.-.-.-.-.-.~                               } k                             0 -.$                             Z -.-.-.-.-.-.-.-.",
"-.-.-.-.-.-.~                               } k                             0 -.$                             Z -.-.-.-.-.-.-.-.",
"-.-.-.-.-.-.~                               } k                             0 -.$                             Z -.-.-.-.-.-.-.-.",
"-.-.-.-.-.-.~                               } k                             0 -.$                             Z -.-.-.-.-.-.-.-.",
"-.-.-.-.-.-.~                               } k                             0 -.$                             Z -.-.-.-.-.-.-.-.",
"-.-.-.-.-.-.~                               } k                             0 -.$                             Z -.-.-.-.-.-.-.-.",
"-.-.-.-.-.-.~                               } k                             0 -.$                             Z -.-.-.-.-.-.-.-.",
"-.-.-.-.-.-.~                               } k                             0 -.$                             Z -.-.-.-.-.-.-.-.",
"-.-.-.-.-.-.~                               } k                             0 -.$                             Z -.-.-.-.-.-.-.-.",
"-.-.-.-.-.-.~                               } k                             0 -.$                             Z -.-.-.-.-.-.-.-.",
"-.-.-.-.-.-.-.-.-.-.-.-.-.-.-.-.-.-.-.-.-.-.-.-.-.-.-.-.-.-.-.-.-.-.-.-.-.-.-.-.-.-.-.-.-.-.-.-.-.-.-.-.-.-.-.-.-.-.-.-.-.-.-.-.",
"-.-.-.-.-.-.-.-.-.-.-.-.-.-.-.-.-.-.-.-.-.-.-.-.-.-.-.-.-.-.-.-.-.-.-.-.-.-.-.-.-.-.-.-.-.-.-.-.-.-.-.-.-.-.-.-.-.-.-.-.-.-.-.-.",
"-.-.-.-.-.-.-.-.-.-.-.-.-.-.-.-.-.-.-.-.-.-.-.-.-.-.-.-.-.-.-.-.-.-.-.-.-.-.-.-.-.-.-.-.-.-.-.-.-.-.-.-.-.-.-.-.-.-.-.-.-.-.-.-.",
"-.-.-.-.-.-.-.-.-.-.-.-.-.-.-.-.-.-.-.-.-.-.-.-.-.-.-.-.-.-.-.-.-.-.-.-.-.-.-.-.-.-.-.-.-.-.-.-.-.-.-.-.-.-.-.-.-.-.-.-.-.-.-.-.",
"-.-.-.-.-.-.-.-.-.-.-.-.-.-.-.-.-.-.-.-.-.-.-.-.-.-.-.-.-.-.-.-.-.-.-.-.-.-.-.-.-.-.-.-.-.-.-.-.-.-.-.-.-.-.-.-.-.-.-.-.-.-.-.-.",
"-.-.-.-.-.-.-.-.-.-.-.-.-.-.-.-.-.-.-.-.-.-.-.-.-.-.-.-.-.-.-.-.-.-.-.-.-.-.-.-.-.-.-.-.-.-.-.-.-.-.-.-.-.-.-.-.-.-.-.-.-.-.-.-.",
"-.-.-.-.-.-.-.-.-.-.-.-.-.-.-.-.-.-.-.-.-.-.-.-.-.-.-.-.-.-.-.-.-.-.-.-.-.-.-.-.-.-.-.-.-.-.-.-.-.-.-.-.-.-.-.-.-.-.-.-.-.-.-.-.",
"-.-.-.-.-.-.-.-.-.-.-.-.-.-.-.-.-.-.-.-.-.-.-.-.-.-.-.-.-.-.-.-.-.-.-.-.-.-.-.-.-.-.-.-.-.-.-.-.-.-.-.-.-.-.-.-.-.-.-.-.-.-.-.-.",
"-.-.-.-.-.-.-.-.-.-.-.-.-.-.-.-.-.-.-.-.-.-.-.-.-.-.-.-.-.-.-.-.-.-.-.-.-.-.-.-.-.-.-.-.-.-.-.-.-.-.-.-.-.-.-.-.-.-.-.-.-.-.-.-."
};
