/* XPM */
static char *e88f1fa9358f4989c004339dbe5b0a60XPldWRZgJiS0jxsR[] = {
/* columns rows colors chars-per-pixel */
"32 32 72 1 ",
"  c white",
". c #C1C1C1",
"X c #8B8B8B",
"o c gray87",
"O c #C6C6C6",
"+ c #777777",
"@ c black",
"# c gray71",
"$ c gray51",
"% c #D8D8D8",
"& c #F9F9F9",
"* c gray92",
"= c #EAEAEA",
"- c gray76",
"; c #DDDDDD",
": c gray96",
"> c gray80",
", c #C0C0C0",
"< c gray79",
"1 c gray98",
"2 c gray74",
"3 c #252525",
"4 c #070707",
"5 c #717171",
"6 c #313131",
"7 c #353535",
"8 c gray99",
"9 c gray78",
"0 c #060606",
"q c #5D5D5D",
"w c gray60",
"e c gray82",
"r c #0B0B0B",
"t c #DFDFDF",
"y c #3F3F3F",
"u c #CECECE",
"i c #494949",
"p c #010101",
"a c #535353",
"s c #FEFEFE",
"d c gray1",
"f c #8D8D8D",
"g c gray20",
"h c #464646",
"j c #1E1E1E",
"k c #020202",
"l c gray69",
"z c #8E8E8E",
"x c gray22",
"c c gray6",
"v c #111111",
"b c #C5C5C5",
"n c #505050",
"m c #909090",
"M c gray46",
"N c gray52",
"B c #AFAFAF",
"V c #181818",
"C c #5F5F5F",
"Z c #F4F4F4",
"A c LightGray",
"S c #ACACAC",
"D c gray77",
"F c #B7B7B7",
"G c #E4E4E4",
"H c #7C7C7C",
"J c #090909",
"K c gray72",
"L c #868686",
"P c #B2B2B2",
"I c gray43",
"U c #D5D5D5",
/* pixels */
"                                ",
"                                ",
"  .XXXXXXXXoXXXXXXXXoXXXXXXXXO  ",
"  +@@@@@@@@#@@@@@@@@#@@@@@@@@$  ",
"  +@@@@@@@@#@@@@@@@@#@@@@@@@@$  ",
"  +@@@@@@@@#@@@@@@@@#@@@@@@@@$  ",
"  +@@@@@@@@#@@@@@@@@#@@@@@@@@$  ",
"  +@@@@@@@@#@@@@@@@@#@@@@@@@@$  ",
"  +@@@@@@@@#@@@@@@@@#@@@@@@@@$  ",
"  +@@@@@@@@#@@@@@@@@#@@@@@@@@$  ",
"  +@@@@@@@@#@@@@@@@@#@@@@@@@@$  ",
"  %########&********&**=D#;**:  ",
"  +@@@@@@@@  >,,,<1   23@@45&   ",
"  +@@@@@@@@  6@@@@78 90@@@@@q   ",
"  +@@@@@@@@  6@wer@t y@@@@@@@u  ",
"  +@@@@@@@@  6@iqpas14@@@@@@pX  ",
"  +@@@@@@@@  6@gh4j;&p@@@@@@@X  ",
"  +@@@@@@@@  6@l i@z x@@@@@@@9  ",
"  +@@@@@@@@  6@cv@k9 24@@@@@n   ",
"  +@@@@@@@@  mMMMNOs  BV@@kCZ   ",
"  ASSSSSSSS            &DFG     ",
"  HJJJJJJJJKJJJJJJJJKJJJJJJJJL  ",
"  +@@@@@@@@#@@@@@@@@#@@@@@@@@$  ",
"  +@@@@@@@@#@@@@@@@@#@@@@@@@@$  ",
"  +@@@@@@@@#@@@@@@@@#@@@@@@@@$  ",
"  +@@@@@@@@#@@@@@@@@#@@@@@@@@$  ",
"  +@@@@@@@@#@@@@@@@@#@@@@@@@@$  ",
"  +@@@@@@@@#@@@@@@@@#@@@@@@@@$  ",
"  +@@@@@@@@#@@@@@@@@#@@@@@@@@$  ",
"  PIIIIIIIIUIIIIIIIIUIIIIIIIIK  ",
"                                ",
"                                "
};
