/* XPM */
static char *_5deb4e9d9434e34ecde19c6e6b4cf37EVfN790NIFfeCQ8g[] = {
/* columns rows colors chars-per-pixel */
"64 64 117 2 ",
"   c white",
".  c gray94",
"X  c gray9",
"o  c gray48",
"O  c #8D8D8D",
"+  c gray92",
"@  c gray11",
"#  c #EFEFEF",
"$  c black",
"%  c #6C6C6C",
"&  c gray51",
"*  c #E9E9E9",
"=  c gray2",
"-  c #EEEEEE",
";  c gray99",
":  c #D7D7D7",
">  c gray91",
",  c #FBFBFB",
"<  c #D8D8D8",
"1  c #F8F8F8",
"2  c gray58",
"3  c gray98",
"4  c #C3C3C3",
"5  c #989898",
"6  c gray54",
"7  c #9B9B9B",
"8  c #CACACA",
"9  c #FDFDFD",
"0  c gray96",
"q  c #818181",
"w  c #151515",
"e  c #1E1E1E",
"r  c gray57",
"t  c #B2B2B2",
"y  c #848484",
"u  c #A2A2A2",
"i  c #ECECEC",
"p  c #DADADA",
"a  c #282828",
"s  c #393939",
"d  c #626262",
"f  c #0E0E0E",
"g  c #B6B6B6",
"h  c #E1E1E1",
"j  c #191919",
"k  c #2A2A2A",
"l  c #101010",
"z  c #F1F1F1",
"x  c #FEFEFE",
"c  c gray24",
"v  c #5B5B5B",
"b  c #484848",
"n  c gray74",
"m  c #BCBCBC",
"M  c #8B8B8B",
"N  c gray1",
"B  c gray73",
"V  c #AFAFAF",
"C  c #010101",
"Z  c #CDCDCD",
"A  c gray38",
"S  c gray17",
"D  c #4C4C4C",
"F  c gray42",
"G  c #515151",
"H  c gray83",
"J  c LightGray",
"K  c gray63",
"L  c #444444",
"P  c #0B0B0B",
"I  c gray3",
"U  c #717171",
"Y  c #090909",
"T  c #959595",
"R  c #838383",
"E  c #1D1D1D",
"W  c gray49",
"Q  c #252525",
"!  c #ACACAC",
"~  c #232323",
"^  c #414141",
"/  c #606060",
"(  c #777777",
")  c #161616",
"_  c #9F9F9F",
"`  c gray",
"'  c #181818",
"]  c #494949",
"[  c gray80",
"{  c gray81",
"}  c #0C0C0C",
"|  c #E2E2E2",
" . c #020202",
".. c #1B1B1B",
"X. c #505050",
"o. c gray76",
"O. c gray8",
"+. c #202020",
"@. c #D5D5D5",
"#. c gray95",
"$. c #EAEAEA",
"%. c #F9F9F9",
"&. c gray90",
"*. c gray36",
"=. c #040404",
"-. c #6D6D6D",
";. c #F4F4F4",
":. c #5A5A5A",
">. c #E7E7E7",
",. c gray62",
"<. c gray45",
"1. c gray40",
"2. c gray65",
"3. c gray7",
"4. c #767676",
"5. c gainsboro",
"6. c #DDDDDD",
/* pixels */
"                                                                                                                                ",
"                                                                                                                                ",
"                                                                                                                                ",
"                                                                                                                                ",
"                                                                                                                                ",
"        . X X X X X X X X X X X X X X X X X   o X X X X X X X X X X X X X X X X O + X X X X X X X X X X X X X X X X @           ",
"        # $ $ $ $ $ $ $ $ $ $ $ $ $ $ $ $ $   % $ $ $ $ $ $ $ $ $ $ $ $ $ $ $ $ & * $ $ $ $ $ $ $ $ $ $ $ $ $ $ $ $ =           ",
"        # $ $ $ $ $ $ $ $ $ $ $ $ $ $ $ $ $   % $ $ $ $ $ $ $ $ $ $ $ $ $ $ $ $ & * $ $ $ $ $ $ $ $ $ $ $ $ $ $ $ $ =           ",
"        # $ $ $ $ $ $ $ $ $ $ $ $ $ $ $ $ $   % $ $ $ $ $ $ $ $ $ $ $ $ $ $ $ $ & * $ $ $ $ $ $ $ $ $ $ $ $ $ $ $ $ =           ",
"        # $ $ $ $ $ $ $ $ $ $ $ $ $ $ $ $ $   % $ $ $ $ $ $ $ $ $ $ $ $ $ $ $ $ & * $ $ $ $ $ $ $ $ $ $ $ $ $ $ $ $ =           ",
"        # $ $ $ $ $ $ $ $ $ $ $ $ $ $ $ $ $   % $ $ $ $ $ $ $ $ $ $ $ $ $ $ $ $ & * $ $ $ $ $ $ $ $ $ $ $ $ $ $ $ $ =           ",
"        - $ $ $ $ $ $ $ $ $ $ $ $ $ $ $ $ $   % $ $ $ $ $ $ $ $ $ $ $ $ $ $ $ $ & * $ $ $ $ $ $ $ $ $ $ $ $ $ $ $ $ =           ",
"        # $ $ $ $ $ $ $ $ $ $ $ $ $ $ $ $ $   % $ $ $ $ $ $ $ $ $ $ $ $ $ $ $ $ & * $ $ $ $ $ $ $ $ $ $ $ $ $ $ $ $ =           ",
"        # $ $ $ $ $ $ $ $ $ $ $ $ $ $ $ $ $   % $ $ $ $ $ $ $ $ $ $ $ $ $ $ $ $ & * $ $ $ $ $ $ $ $ $ $ $ $ $ $ $ $ =           ",
"        # $ $ $ $ $ $ $ $ $ $ $ $ $ $ $ $ $   % $ $ $ $ $ $ $ $ $ $ $ $ $ $ $ $ & * $ $ $ $ $ $ $ $ $ $ $ $ $ $ $ $ =           ",
"        # $ $ $ $ $ $ $ $ $ $ $ $ $ $ $ $ $   % $ $ $ $ $ $ $ $ $ $ $ $ $ $ $ $ & * $ $ $ $ $ $ $ $ $ $ $ $ $ $ $ $ =           ",
"        # $ $ $ $ $ $ $ $ $ $ $ $ $ $ $ $ $   % $ $ $ $ $ $ $ $ $ $ $ $ $ $ $ $ & * $ $ $ $ $ $ $ $ $ $ $ $ $ $ $ $ =           ",
"        # $ $ $ $ $ $ $ $ $ $ $ $ $ $ $ $ $   % $ $ $ $ $ $ $ $ $ $ $ $ $ $ $ $ & * $ $ $ $ $ $ $ $ $ $ $ $ $ $ $ $ =           ",
"        # $ $ $ $ $ $ $ $ $ $ $ $ $ $ $ $ $   % $ $ $ $ $ $ $ $ $ $ $ $ $ $ $ $ & * $ $ $ $ $ $ $ $ $ $ $ $ $ $ $ $ =           ",
"        # $ $ $ $ $ $ $ $ $ $ $ $ $ $ $ $ $   % $ $ $ $ $ $ $ $ $ $ $ $ $ $ $ $ & * $ $ $ $ $ $ $ $ $ $ $ $ $ $ $ $ =           ",
"        # $ $ $ $ $ $ $ $ $ $ $ $ $ $ $ $ $   % $ $ $ $ $ $ $ $ $ $ $ $ $ $ $ $ & * $ $ $ $ $ $ $ $ $ $ $ $ $ $ $ $ =           ",
"        # $ $ $ $ $ $ $ $ $ $ $ $ $ $ $ $ $   % $ $ $ $ $ $ $ $ $ $ $ $ $ $ $ $ & * $ $ $ $ $ $ $ $ $ $ $ $ $ $ $ $ =           ",
"        ; : : : : : : : : : : : : : : : : :   > : : : : : : : : : : : : : : : : + , : : : : : : : : : : : : : : : : <           ",
"        1 2 2 2 2 2 2 2 2 2 2 2 2 2 2 2 2 2                                                   3 4 5 6 7 [ ,                     ",
"        # $ $ $ $ $ $ $ $ $ $ $ $ $ $ $ $ $                                               0 q X $ $ $ $ $ @ 2 ;                 ",
"        # $ $ $ $ $ $ $ $ $ $ $ $ $ $ $ $ $         t & & & & & & & y u i               p a $ $ $ $ $ C C $ $ s >               ",
"        # $ $ $ $ $ $ $ $ $ $ $ $ $ $ $ $ $         d $ $ $ $ $ $ $ $ $ } g           h j $ $ $ $ $ $ $ $ $ $ $ k #             ",
"        # $ $ $ $ $ $ $ $ $ $ $ $ $ $ $ $ $         d $ $ $ $ $ $ $ C  .$ l z       x c $ $ $ $ $ $ $ $ $ $ $ $ $ v             ",
"        # $ $ $ $ $ $ $ $ $ $ $ $ $ $ $ $ $         d $ $ $ b B B O N $ $ $ B       V $ $ $ $ $ $ $ $ $ $ $ $ $ $ C Z           ",
"        # $ $ $ $ $ $ $ $ $ $ $ $ $ $ $ $ $         d $ $  .d       S $ $ $ 4       D $ $ $ $ $ $ $ $ $ $ $ $ $ $ $ F           ",
"        # $ $ $ $ $ $ $ $ $ $ $ $ $ $ $ $ $         d $ $ $ X.@.H K = $ $ a ,     x } C $ $ $ $ $ $ $ $ $ $ $ $ $ $ S           ",
"        # $ $ $ $ $ $ $ $ $ $ $ $ $ $ $ $ $         d $ $ $ $ $ $ $ $ $ L h       i $ $ $ $ $ $ $ $ $ $ $ $ $ $ $ $ P           ",
"        # $ $ $ $ $ $ $ $ $ $ $ $ $ $ $ $ $         d $ $ $ $ $ $ $ $ $ I U 3     * $ $ $ $ $ $ $ $ $ $ $ $ $ $ $ $ Y           ",
"        # $ $ $ $ $ $ $ $ $ $ $ $ $ $ $ $ $         d $ $ $ s T T y ..$ $ $ W     ; Y $ $ $ $ $ $ $ $ $ $ $ $ $ $ $ Q           ",
"        # $ $ $ $ $ $ $ $ $ $ $ $ $ $ $ $ $         d $ $ $ A       ! C C $ Q       ^ $ $ $ $ $ $ $ $ $ $ $ $ $ $ $ /           ",
"        # $ $ $ $ $ $ $ $ $ $ $ $ $ $ $ $ $         d $ $ $ A     x ( $ $ $ X       _ $ $ $ $ $ $ $ $ $ $ $ $ $ $  .B           ",
"        # $ $ $ $ $ $ $ $ $ $ $ $ $ $ $ $ $         d $ $ $ l k k ' $ $ $ $ b       3 k $ $ $ $ $ $ $ $ $ $ $ $ $ L             ",
"        # $ $ $ $ $ $ $ $ $ $ $ $ $ $ $ $ $         d $ $ $ $ $ $ $ $ $ $ Y [         { } $ $ $ $ $ $ $ $ $ $ $ ' |             ",
"        # $ $ $ $ $ $ $ $ $ $ $ $ $ $ $ $ $         d $ $ $ $ $ $ $  ...X.[             o.O.$ $ $ $ $ $ $ $ $ +.@.              ",
"        # $ $ $ $ $ $ $ $ $ $ $ $ $ $ $ $ $         ;.$.$.$.$.$.$.+ %.                    >.*.=.$ $ $ $ $ I -.#                 ",
"        ;.:.:.:.:.:.:.:.:.:.:.:.:.:.:.:.:.:.        x                                     x   >.,.4.1.( 2.-                     ",
"                                                                                                  x                             ",
"        . 3.3.3.3.3.3.3.3.3.3.3.3.3.3.3.3.3.  4.3.3.3.3.3.3.3.3.3.3.3.3.3.3.3.3.M $.3.3.3.3.3.3.3.3.3.3.3.3.3.3.3.3.)           ",
"        # $ $ $ $ $ $ $ $ $ $ $ $ $ $ $ $ $   % $ $ $ $ $ $ $ $ $ $ $ $ $ $ $ $ & * $ $ $ $ $ $ $ $ $ $ $ $ $ $ $ $ =           ",
"        # $ $ $ $ $ $ $ $ $ $ $ $ $ $ $ $ $   % $ $ $ $ $ $ $ $ $ $ $ $ $ $ $ $ & * $ $ $ $ $ $ $ $ $ $ $ $ $ $ $ $ =           ",
"        # $ $ $ $ $ $ $ $ $ $ $ $ $ $ $ $ $   % $ $ $ $ $ $ $ $ $ $ $ $ $ $ $ $ & * $ $ $ $ $ $ $ $ $ $ $ $ $ $ $ $ =           ",
"        # $ $ $ $ $ $ $ $ $ $ $ $ $ $ $ $ $   % $ $ $ $ $ $ $ $ $ $ $ $ $ $ $ $ & * $ $ $ $ $ $ $ $ $ $ $ $ $ $ $ $ =           ",
"        # $ $ $ $ $ $ $ $ $ $ $ $ $ $ $ $ $   % $ $ $ $ $ $ $ $ $ $ $ $ $ $ $ $ & * $ $ $ $ $ $ $ $ $ $ $ $ $ $ $ $ =           ",
"        # $ $ $ $ $ $ $ $ $ $ $ $ $ $ $ $ $   % $ $ $ $ $ $ $ $ $ $ $ $ $ $ $ $ & * $ $ $ $ $ $ $ $ $ $ $ $ $ $ $ $ =           ",
"        # $ $ $ $ $ $ $ $ $ $ $ $ $ $ $ $ $   % $ $ $ $ $ $ $ $ $ $ $ $ $ $ $ $ & * $ $ $ $ $ $ $ $ $ $ $ $ $ $ $ $ =           ",
"        # $ $ $ $ $ $ $ $ $ $ $ $ $ $ $ $ $   % $ $ $ $ $ $ $ $ $ $ $ $ $ $ $ $ & * $ $ $ $ $ $ $ $ $ $ $ $ $ $ $ $ =           ",
"        # $ $ $ $ $ $ $ $ $ $ $ $ $ $ $ $ $   % $ $ $ $ $ $ $ $ $ $ $ $ $ $ $ $ & * $ $ $ $ $ $ $ $ $ $ $ $ $ $ $ $ =           ",
"        # $ $ $ $ $ $ $ $ $ $ $ $ $ $ $ $ $   % $ $ $ $ $ $ $ $ $ $ $ $ $ $ $ $ & * $ $ $ $ $ $ $ $ $ $ $ $ $ $ $ $ =           ",
"        # $ $ $ $ $ $ $ $ $ $ $ $ $ $ $ $ $   % $ $ $ $ $ $ $ $ $ $ $ $ $ $ $ $ & * $ $ $ $ $ $ $ $ $ $ $ $ $ $ $ $ =           ",
"        # $ $ $ $ $ $ $ $ $ $ $ $ $ $ $ $ $   % $ $ $ $ $ $ $ $ $ $ $ $ $ $ $ $ & * $ $ $ $ $ $ $ $ $ $ $ $ $ $ $ $ =           ",
"        # $ $ $ $ $ $ $ $ $ $ $ $ $ $ $ $ $   % $ $ $ $ $ $ $ $ $ $ $ $ $ $ $ $ & * $ $ $ $ $ $ $ $ $ $ $ $ $ $ $ $ =           ",
"        # $ $ $ $ $ $ $ $ $ $ $ $ $ $ $ $ $   % $ $ $ $ $ $ $ $ $ $ $ $ $ $ $ $ & * $ $ $ $ $ $ $ $ $ $ $ $ $ $ $ $ =           ",
"        # $ $ $ $ $ $ $ $ $ $ $ $ $ $ $ $ $   % $ $ $ $ $ $ $ $ $ $ $ $ $ $ $ $ & * $ $ $ $ $ $ $ $ $ $ $ $ $ $ $ $ =           ",
"        # $ $ $ $ $ $ $ $ $ $ $ $ $ $ $ $ $   % $ $ $ $ $ $ $ $ $ $ $ $ $ $ $ $ & * $ $ $ $ $ $ $ $ $ $ $ $ $ $ $ $ =           ",
"        , 5.5.5.5.5.5.5.5.5.5.5.5.5.5.5.5.5.  + 5.5.5.5.5.5.5.5.5.5.5.5.5.5.5.5.- ; 5.5.5.5.5.5.5.5.5.5.5.5.5.5.5.5.6.          ",
"                                                                                                                                ",
"                                                                                                                                ",
"                                                                                                                                ",
"                                                                                                                                "
};
